<svg width="24" height="24" viewBox="0 0 24 24" fill="none" xmlns="http://www.w3.org/2000/svg">
<path fill-rule="evenodd" clip-rule="evenodd" d="M22 12C22 14.0698 21.3712 15.9928 20.2941 17.5882L23 23H18.5L17.2548 20.5097C15.7279 21.4546 13.9276 22 12 22C9.74879 22 7.67132 21.2561 6 20.0007V23H2V12C2 6.47715 6.47715 2 12 2C17.5228 2 22 6.47715 22 12ZM20 12C20 14.2091 19.1046 16.2091 17.6569 17.6569C18.3997 16.914 18.989 16.0321 19.391 15.0615C19.7931 14.0909 20 13.0506 20 12ZM17.6569 6.34314C19.1046 7.79086 20 9.79086 20 12C20 10.9494 19.7931 9.90914 19.391 8.93853C18.989 7.96793 18.3997 7.08601 17.6569 6.34314ZM17.6569 6.34314C16.2091 4.89543 14.2091 4 12 4C7.58172 4 4 7.58172 4 12C4 16.4183 7.58172 20 12 20C14.2091 20 16.2091 19.1046 17.6569 17.6569L16.2426 16.2426C15.1569 17.3284 13.6569 18 12 18C8.68629 18 6 15.3137 6 12C6 8.68629 8.68629 6 12 6C13.6569 6 15.1569 6.67157 16.2426 7.75736L17.6569 6.34314ZM12 8C13.1046 8 14.1046 8.44772 14.8284 9.17157L13.4142 10.5858C13.0523 10.2239 12.5523 10 12 10C10.8954 10 10 10.8954 10 12C10 13.1046 10.8954 14 12 14C12.5523 14 13.0523 13.7761 13.4142 13.4142L14.8284 14.8284C14.1046 15.5523 13.1046 16 12 16C9.79086 16 8 14.2091 8 12C8 9.79086 9.79086 8 12 8Z" fill="#111827"/>
</svg>
