<svg width="24" height="24" viewBox="0 0 24 24" fill="none" xmlns="http://www.w3.org/2000/svg">
<path fill-rule="evenodd" clip-rule="evenodd" d="M4.57968 21.5468C1.7344 13.9786 3.56163 9.00812 6.54195 6.20744C8.07567 4.76618 9.95847 3.85383 11.7927 3.45772C13.6397 3.05886 15.3585 3.19867 16.5862 3.7567C19.6014 5.12733 20.9028 7.56583 21.0389 10.1297C21.1778 12.7465 20.095 15.4907 18.2929 17.2929C18.1891 17.3967 18.084 17.4974 17.9776 17.5951C17.7303 17.2926 17.4876 16.974 17.2507 16.643C17.0494 16.3617 16.8538 16.0735 16.6647 15.7813C18.7049 13.4736 18.964 10.6525 18.0143 8.47319C16.9289 5.98245 14.2143 4.33725 11.1286 5.57153C9.20716 6.3401 7.32143 8.23555 6.22541 10.5284C5.11694 12.8473 4.74531 15.7267 6.10556 18.4472C7.30819 20.8525 9.70172 22 12.25 22C13.5592 22 14.9247 21.7014 16.2382 21.114C15.7505 20.6248 15.3227 20.0749 14.9455 19.4846C14.0315 19.8302 13.1129 20 12.25 20C10.2983 20 8.69179 19.1475 7.89441 17.5528C6.87769 15.5193 7.11473 13.3053 8.02984 11.391C8.95739 9.45055 10.5101 7.97297 11.8714 7.42848C13.7857 6.66276 15.4512 7.5978 16.1809 9.27218C16.7481 10.5737 16.7202 12.3279 15.5795 13.9369C14.8482 12.5706 14.2837 11.2363 13.9529 10.1968L12.5528 9.60557C9.63107 11.0664 8.85197 13.8037 9.70424 15.8151C10.1221 16.8012 10.9516 17.6164 12.0854 17.8617C12.7052 17.9958 13.3538 17.9469 14.0037 17.7206C13.7308 17.1107 13.4947 16.4819 13.2876 15.8513C12.968 15.9513 12.7063 15.9497 12.5083 15.9069C12.1109 15.8209 11.7529 15.5236 11.5457 15.0348C11.2209 14.2683 11.3087 13.019 12.4836 12.0207C12.5687 12.2362 12.6598 12.4572 12.7564 12.6826C12.7773 12.7312 12.7984 12.78 12.8198 12.8291C13.1813 13.6576 13.6172 14.5404 14.1131 15.4216C14.4371 15.9971 14.7867 16.572 15.1579 17.1305C15.3098 17.3591 15.4654 17.5849 15.6242 17.8069L15.6243 17.8069L15.6243 17.807C15.8649 18.1431 16.115 18.4733 16.3739 18.793C16.8084 19.3295 17.2675 19.8366 17.7475 20.2937C17.8942 20.4333 18.0428 20.5682 18.1932 20.6979C18.2749 20.7683 18.3571 20.8371 18.4398 20.9043C19.2653 21.5748 20.1846 22.1147 21.1719 22.3658L21.1719 22.3658C21.4109 22.4265 21.6539 22.4704 21.9005 22.495L22.0995 20.505C21.3648 20.4315 20.5557 20.0463 19.7007 19.3519C19.5831 19.2564 19.4658 19.156 19.349 19.051C19.47 18.9394 19.5894 18.8248 19.7071 18.7071C21.9049 16.5093 23.2055 13.2146 23.0361 10.0236C22.8639 6.7796 21.1653 3.64127 17.4138 1.93598C15.6991 1.15652 13.5217 1.03823 11.3706 1.50278C9.20662 1.97009 6.98918 3.04267 5.17235 4.74999C1.68458 8.02751 -0.17726 13.4858 2.28294 21.0405L4.57968 21.5468Z" fill="black"/>
</svg>
