<svg width="24" height="24" viewBox="0 0 24 24" fill="none" xmlns="http://www.w3.org/2000/svg">
<path fill-rule="evenodd" clip-rule="evenodd" d="M12 2C6.47715 2 2 6.47715 2 12C2 16.8379 5.43552 20.8734 10 21.8V18.7101C7.10851 17.8496 5 15.171 5 12C5 8.13401 8.13401 5 12 5C15.866 5 19 8.13401 19 12C19 13.933 18.2165 15.683 16.9497 16.9497L19.0711 19.0711C20.8807 17.2614 22 14.7614 22 12C22 6.47715 17.5228 2 12 2ZM15.5355 15.5355C16.4404 14.6307 17 13.3807 17 12C17 9.23858 14.7614 7 12 7C9.23858 7 7 9.23858 7 12C7 14.0503 8.2341 15.8124 10 16.584V12V10H12C13.1046 10 14 10.8954 14 12C14 12.5523 13.7761 13.0523 13.4142 13.4142L15.5355 15.5355Z" fill="#111827"/>
</svg>
